<svg xmlns="http://www.w3.org/2000/svg" viewBox="0 0 1920 1080">
  <defs>
    <linearGradient id="skyGradient" x1="0%" y1="0%" x2="0%" y2="100%">
      <stop offset="0%" style="stop-color:#87CEEB;stop-opacity:1" />
      <stop offset="100%" style="stop-color:#E6F3FF;stop-opacity:1" />
    </linearGradient>
    <linearGradient id="houseGradient" x1="0%" y1="0%" x2="0%" y2="100%">
      <stop offset="0%" style="stop-color:#F5F5DC;stop-opacity:1" />
      <stop offset="100%" style="stop-color:#E6E6FA;stop-opacity:1" />
    </linearGradient>
    <linearGradient id="roofGradient" x1="0%" y1="0%" x2="0%" y2="100%">
      <stop offset="0%" style="stop-color:#8B4513;stop-opacity:1" />
      <stop offset="100%" style="stop-color:#654321;stop-opacity:1" />
    </linearGradient>
  </defs>
  
  <!-- Sky Background -->
  <rect width="1920" height="1080" fill="url(#skyGradient)"/>
  
  <!-- Mountains/Hills Background -->
  <path d="M0,600 Q480,500 960,580 Q1440,520 1920,600 L1920,1080 L0,1080 Z" fill="#E6E6FA" opacity="0.3"/>
  <path d="M0,650 Q480,550 960,630 Q1440,570 1920,650 L1920,1080 L0,1080 Z" fill="#DDD" opacity="0.2"/>
  
  <!-- Trees -->
  <ellipse cx="150" cy="650" rx="80" ry="120" fill="#228B22" opacity="0.6"/>
  <rect x="140" y="650" width="20" height="60" fill="#8B4513"/>
  
  <ellipse cx="1750" cy="680" rx="60" ry="100" fill="#32CD32" opacity="0.5"/>
  <rect x="1745" y="680" width="15" height="50" fill="#8B4513"/>
  
  <!-- Modern House -->
  <g transform="translate(960, 400)">
    <!-- Main House Structure -->
    <rect x="-200" y="100" width="400" height="300" fill="url(#houseGradient)" stroke="#DDD" stroke-width="2"/>
    
    <!-- Roof -->
    <path d="M-220,100 L0,20 L220,100 Z" fill="url(#roofGradient)" stroke="#654321" stroke-width="2"/>
    
    <!-- Windows -->
    <rect x="-150" y="150" width="80" height="80" fill="#87CEEB" stroke="#666" stroke-width="2"/>
    <rect x="-150" y="150" width="80" height="80" fill="none" stroke="#666" stroke-width="1"/>
    <line x1="-110" y1="150" x2="-110" y2="230" stroke="#666" stroke-width="1"/>
    <line x1="-150" y1="190" x2="-70" y2="190" stroke="#666" stroke-width="1"/>
    
    <rect x="70" y="150" width="80" height="80" fill="#87CEEB" stroke="#666" stroke-width="2"/>
    <rect x="70" y="150" width="80" height="80" fill="none" stroke="#666" stroke-width="1"/>
    <line x1="110" y1="150" x2="110" y2="230" stroke="#666" stroke-width="1"/>
    <line x1="70" y1="190" x2="150" y2="190" stroke="#666" stroke-width="1"/>
    
    <!-- Large Window/Sliding Door -->
    <rect x="-50" y="250" width="100" height="120" fill="#87CEEB" stroke="#666" stroke-width="3"/>
    <rect x="-50" y="250" width="100" height="120" fill="none" stroke="#666" stroke-width="1"/>
    <line x1="0" y1="250" x2="0" y2="370" stroke="#666" stroke-width="2"/>
    
    <!-- Door -->
    <rect x="-30" y="320" width="60" height="80" fill="#8B4513" stroke="#654321" stroke-width="2"/>
    <circle cx="15" cy="360" r="3" fill="#FFD700"/>
    
    <!-- Garage -->
    <rect x="-300" y="200" width="80" height="200" fill="#F0F0F0" stroke="#CCC" stroke-width="2"/>
    <rect x="-290" y="320" width="60" height="80" fill="#666" stroke="#555" stroke-width="2"/>
    
    <!-- Chimney -->
    <rect x="120" y="40" width="30" height="80" fill="#8B4513" stroke="#654321" stroke-width="2"/>
    
    <!-- Garden Elements -->
    <ellipse cx="-100" cy="420" rx="30" ry="15" fill="#90EE90"/>
    <ellipse cx="100" cy="430" rx="25" ry="12" fill="#98FB98"/>
    
    <!-- Pathway -->
    <path d="M-30,400 Q-20,420 -10,440 Q0,460 10,480 Q20,500 30,520" 
          fill="none" stroke="#D3D3D3" stroke-width="30" opacity="0.7"/>
  </g>
  
  <!-- Clouds -->
  <ellipse cx="200" cy="150" rx="60" ry="30" fill="white" opacity="0.8"/>
  <ellipse cx="220" cy="140" rx="40" ry="25" fill="white" opacity="0.8"/>
  <ellipse cx="180" cy="140" rx="35" ry="20" fill="white" opacity="0.8"/>
  
  <ellipse cx="1600" cy="200" rx="50" ry="25" fill="white" opacity="0.7"/>
  <ellipse cx="1620" cy="190" rx="35" ry="20" fill="white" opacity="0.7"/>
  
  <!-- Sun -->
  <circle cx="1700" cy="150" r="40" fill="#FFD700" opacity="0.9"/>
  <g transform="translate(1700, 150)">
    <line x1="-60" y1="0" x2="-50" y2="0" stroke="#FFD700" stroke-width="3"/>
    <line x1="50" y1="0" x2="60" y2="0" stroke="#FFD700" stroke-width="3"/>
    <line x1="0" y1="-60" x2="0" y2="-50" stroke="#FFD700" stroke-width="3"/>
    <line x1="0" y1="50" x2="0" y2="60" stroke="#FFD700" stroke-width="3"/>
    <line x1="-42" y1="-42" x2="-35" y2="-35" stroke="#FFD700" stroke-width="3"/>
    <line x1="35" y1="35" x2="42" y2="42" stroke="#FFD700" stroke-width="3"/>
    <line x1="42" y1="-42" x2="35" y2="-35" stroke="#FFD700" stroke-width="3"/>
    <line x1="-35" y1="35" x2="-42" y2="42" stroke="#FFD700" stroke-width="3"/>
  </g>
</svg>